<svg width="54" height="57" viewBox="0 0 54 57" fill="none" xmlns="http://www.w3.org/2000/svg">
<g filter="url(#filter0_d_107_12)">
<path d="M24.376 1.704C24.152 2.376 23.928 3.384 23.76 4.168C22.808 8.872 21.856 17.72 21.856 25.392C21.856 32.672 23.424 39.392 25.16 44.656L21.072 45.888C19.448 40.904 17.936 32.952 17.936 25.84C17.936 18.168 19.056 9.096 19.56 4.28C19.672 3.272 19.728 2.264 19.728 1.536L24.376 1.704ZM15.36 8.592C25.216 8.592 34.96 7.808 42.688 6.072L42.744 10.216C34.68 11.616 23.648 12.456 15.304 12.456C12.896 12.456 8.528 12.232 6.232 12.12L6.12 7.92C8.08 8.256 12.952 8.592 15.36 8.592ZM38.712 15.2C38.376 15.928 37.872 17.44 37.536 18.336C34.232 28.696 28.632 36.48 22.752 41.016C19.168 43.76 14.688 45.832 10.712 45.832C7.016 45.832 4.104 43.592 4.104 38.832C4.104 31.16 11.216 23.264 19.504 20.072C23.256 18.616 27.792 17.776 31.432 17.776C42.016 17.776 48.68 23.936 48.68 31.776C48.68 39.784 43.36 46.784 30.368 48.856L27.96 45.104C38.04 43.984 44.312 38.776 44.312 31.552C44.312 26.12 39.72 21.36 31.376 21.36C26.672 21.36 22.528 22.704 19.672 23.992C13.344 26.792 8.304 32.952 8.304 38.104C8.304 40.4 9.424 41.52 11.496 41.52C14.296 41.52 17.936 39.952 21.52 36.816C26.504 32.448 31.096 26.4 33.672 17.328C33.896 16.488 34.176 14.976 34.232 14.08L38.712 15.2Z" fill="#A80700"/>
</g>
<defs>
<filter id="filter0_d_107_12" x="0.604004" y="0.836011" width="52.976" height="55.72" filterUnits="userSpaceOnUse" color-interpolation-filters="sRGB">
<feFlood flood-opacity="0" result="BackgroundImageFix"/>
<feColorMatrix in="SourceAlpha" type="matrix" values="0 0 0 0 0 0 0 0 0 0 0 0 0 0 0 0 0 0 127 0" result="hardAlpha"/>
<feOffset dx="0.7" dy="3.5"/>
<feGaussianBlur stdDeviation="2.1"/>
<feComposite in2="hardAlpha" operator="out"/>
<feColorMatrix type="matrix" values="0 0 0 0 0 0 0 0 0 0 0 0 0 0 0 0 0 0 0.75 0"/>
<feBlend mode="normal" in2="BackgroundImageFix" result="effect1_dropShadow_107_12"/>
<feBlend mode="normal" in="SourceGraphic" in2="effect1_dropShadow_107_12" result="shape"/>
</filter>
</defs>
</svg>
