<svg width="195" height="140" viewBox="0 0 195 140" fill="none" xmlns="http://www.w3.org/2000/svg">
<g filter="url(#filter0_d_23_15)">
<path fill-rule="evenodd" clip-rule="evenodd" d="M55.6449 8.05367C56.0068 6.36482 56.4893 4.19345 56.9718 2.74587L46.9594 2.38397C46.9594 3.95219 46.8388 6.12356 46.5975 8.29493C46.4498 9.70592 46.2776 11.2865 46.0903 13.006C45.9366 14.4166 45.7727 15.9208 45.6038 17.5014C42.9287 17.5564 40.2413 17.5836 37.5501 17.5836C32.3629 17.5836 21.868 16.8598 17.6458 16.136L17.8871 25.1834C18.2543 25.2013 18.6461 25.2205 19.0589 25.2408C24.2068 25.4936 32.6274 25.9072 37.4295 25.9072C39.7817 25.9072 42.233 25.8762 44.7562 25.8156C44.2171 31.4379 43.7128 37.5441 43.4054 43.6065C26.9016 51.1561 13.3031 67.1546 13.3031 82.7248C13.3031 92.9785 19.5759 97.8038 27.5377 97.8038C34.147 97.8038 41.4029 95.1459 47.9194 91.2159C48.5424 93.6431 49.1942 95.8977 49.8545 97.9244L58.6607 95.2705C57.6619 92.242 56.6889 88.9897 55.7992 85.5504C66.0812 76.8635 75.7816 63.559 82.5272 46.4282C93.8291 49.5744 99.9168 57.8631 99.9168 67.0427C99.9168 82.6042 86.406 93.8229 64.6923 96.2356L69.8794 104.318C97.866 99.8545 109.326 84.7755 109.326 67.5252C109.326 54.1314 100.297 43.0139 85.1879 38.9863C85.2322 38.8489 85.2764 38.7113 85.3203 38.5735C85.5495 37.9625 85.8149 37.2184 86.0936 36.437C86.6953 34.7503 87.3589 32.8899 87.8536 31.8181L78.203 29.4055C78.0824 31.3356 77.4792 34.5927 76.9967 36.4022C76.8878 36.7857 76.7773 37.1666 76.665 37.5451C75.2067 37.4275 73.7083 37.3672 72.1714 37.3672C66.0285 37.3672 58.7009 38.4778 51.9289 40.467C52.2095 35.338 52.6268 30.2514 53.1252 25.5182C67.8503 24.8344 83.8898 23.278 96.5391 21.0819L96.4184 12.1552C84.1364 14.9142 69.4904 16.5569 54.1277 17.2287C54.6116 13.7259 55.1282 10.6065 55.6449 8.05367ZM43.1119 52.6216C31.2808 59.2398 22.3505 71.0912 22.3505 81.1566C22.3505 86.1025 24.7631 88.5151 29.2265 88.5151C33.9796 88.5151 39.8564 86.4176 45.9123 82.2225C44.2473 73.5677 43.0992 63.834 43.0992 54.7382C43.0992 54.0378 43.1035 53.332 43.1119 52.6216ZM53.636 75.8081C52.3605 68.9081 51.5434 61.4865 51.5434 53.7731C51.5434 52.1449 51.5633 50.4921 51.6012 48.8256C57.2413 46.7848 64.2925 45.0877 72.0508 45.0877C72.7381 45.0877 73.4135 45.1026 74.0771 45.1321C68.9239 58.396 61.6084 68.2061 53.636 75.8081ZM21.3944 122.782H23.8801L17.495 105.241H14.385L8 122.782H10.3679L12.0878 117.893H19.6744L21.3944 122.782ZM15.8811 107.279L18.9558 115.89H12.7946L15.8811 107.279ZM35.1539 122.782H37.3687V114.241C37.3687 112.631 36.9956 111.398 36.2495 110.542C35.5034 109.686 34.4196 109.258 32.9981 109.258C32.2206 109.258 31.4627 109.419 30.7245 109.741C29.9863 110.063 29.2716 110.51 28.5805 111.084V109.623H26.3657V122.782H28.5805V112.957C29.1852 112.493 29.8174 112.113 30.4771 111.814C31.1368 111.516 31.769 111.366 32.3738 111.366C32.9628 111.366 33.4419 111.449 33.811 111.614C34.1801 111.771 34.4628 112.014 34.6592 112.344C34.8477 112.643 34.9772 113.059 35.0479 113.593C35.1186 114.119 35.1539 114.685 35.1539 115.289V122.782ZM41.5154 107.42H44.0129V105.123H41.5154V107.42ZM41.6568 122.782H43.8715V109.623H41.6568V122.782ZM65.2412 122.782H67.456V114.241C67.456 112.67 67.1104 111.449 66.4193 110.577C65.736 109.698 64.6718 109.258 63.2268 109.258C62.3864 109.258 61.5971 109.427 60.8589 109.764C60.1207 110.094 59.3039 110.636 58.4086 111.39C58.1023 110.722 57.635 110.2 57.0067 109.823C56.3863 109.446 55.6284 109.258 54.7331 109.258C53.9556 109.258 53.2212 109.419 52.5301 109.741C51.8469 110.063 51.1597 110.51 50.4685 111.084V109.623H48.2538V122.782H50.4685V112.957C51.0733 112.493 51.678 112.113 52.2827 111.814C52.8953 111.516 53.504 111.366 54.1087 111.366C54.7448 111.366 55.2318 111.453 55.5695 111.626C55.9072 111.791 56.1664 112.042 56.347 112.38C56.5119 112.694 56.6179 113.114 56.6651 113.64C56.72 114.158 56.7475 114.708 56.7475 115.289V122.782H58.9622V114.359C58.9622 114.123 58.9544 113.888 58.9387 113.652C58.923 113.408 58.9033 113.196 58.8798 113.016C59.5002 112.537 60.1207 112.144 60.7411 111.838C61.3615 111.524 61.982 111.366 62.6024 111.366C63.2386 111.366 63.7255 111.453 64.0632 111.626C64.4009 111.798 64.6601 112.054 64.8407 112.391C65.0056 112.706 65.1116 113.126 65.1588 113.652C65.2137 114.178 65.2412 114.724 65.2412 115.289V122.782ZM73.0399 116.432H82.7352V115.23C82.7352 113.322 82.2522 111.849 81.2862 110.813C80.3281 109.776 78.9615 109.258 77.1866 109.258C75.2703 109.258 73.7232 109.89 72.5451 111.154C71.3749 112.419 70.7898 114.127 70.7898 116.279C70.7898 118.454 71.4024 120.135 72.6276 121.321C73.8527 122.499 75.557 123.088 77.7403 123.088C78.5963 123.088 79.4131 122.982 80.1906 122.77C80.9681 122.558 81.7299 122.295 82.476 121.981V119.566H82.3582C81.9734 119.911 81.3255 120.265 80.4145 120.626C79.5113 120.979 78.612 121.156 77.7167 121.156C77.0413 121.156 76.4209 121.062 75.8554 120.873C75.2978 120.685 74.8148 120.402 74.4064 120.025C73.9823 119.64 73.6486 119.149 73.4051 118.553C73.1616 117.948 73.0399 117.241 73.0399 116.432ZM79.6958 112.038C80.277 112.674 80.5715 113.573 80.5794 114.736H73.0399C73.1341 113.699 73.5307 112.831 74.2297 112.132C74.9365 111.433 75.8829 111.084 77.0688 111.084C78.2469 111.084 79.1225 111.402 79.6958 112.038ZM97.6139 122.782H100.1L93.7146 105.241H90.6046L84.2195 122.782H86.5874L88.3074 117.893H95.894L97.6139 122.782ZM92.1007 107.279L95.1754 115.89H89.0142L92.1007 107.279ZM110.678 112.038H110.796V109.764C110.451 109.709 110.192 109.674 110.019 109.658C109.846 109.635 109.567 109.623 109.182 109.623C108.483 109.623 107.796 109.772 107.121 110.071C106.453 110.361 105.68 110.86 104.8 111.567V109.623H102.585V122.782H104.8V113.44C105.389 112.961 106.002 112.572 106.638 112.274C107.274 111.967 107.934 111.814 108.617 111.814C109.041 111.814 109.406 111.834 109.712 111.873C110.027 111.904 110.349 111.959 110.678 112.038ZM120.503 122.782C121.171 122.585 121.874 122.311 122.612 121.957V119.519H122.494C122.329 119.652 122.105 119.813 121.823 120.002C121.54 120.182 121.238 120.355 120.916 120.52C120.547 120.708 120.13 120.862 119.667 120.979C119.204 121.097 118.748 121.156 118.3 121.156C117.012 121.156 116.011 120.732 115.296 119.884C114.59 119.028 114.236 117.806 114.236 116.22C114.236 114.586 114.597 113.35 115.32 112.509C116.05 111.661 117.044 111.237 118.3 111.237C118.984 111.237 119.683 111.378 120.397 111.661C121.12 111.944 121.819 112.348 122.494 112.874H122.612V110.412C122.007 110.106 121.34 109.847 120.609 109.635C119.887 109.423 119.149 109.317 118.395 109.317C116.455 109.317 114.892 109.929 113.706 111.154C112.528 112.38 111.939 114.068 111.939 116.22C111.939 117.375 112.096 118.384 112.41 119.248C112.724 120.112 113.168 120.826 113.741 121.392C114.307 121.957 114.986 122.381 115.779 122.664C116.573 122.939 117.444 123.076 118.395 123.076C119.141 123.076 119.844 122.978 120.503 122.782ZM134.251 122.782H136.466V114.241C136.466 112.631 136.093 111.398 135.347 110.542C134.601 109.686 133.517 109.258 132.095 109.258C131.318 109.258 130.56 109.419 129.822 109.741C129.083 110.063 128.369 110.51 127.678 111.084V104.451H125.463V122.782H127.678V112.957C128.282 112.493 128.915 112.113 129.574 111.814C130.234 111.516 130.866 111.366 131.471 111.366C132.06 111.366 132.539 111.449 132.908 111.614C133.277 111.771 133.56 112.014 133.756 112.344C133.945 112.643 134.074 113.059 134.145 113.593C134.216 114.119 134.251 114.685 134.251 115.289V122.782ZM140.613 107.42H143.11V105.123H140.613V107.42ZM140.754 122.782H142.969V109.623H140.754V122.782ZM153.406 122.782L158.731 109.623H156.41L152.369 120.096L148.293 109.623H145.89L151.18 122.782H153.406ZM162.736 116.432H172.432V115.23C172.432 113.322 171.949 111.849 170.983 110.813C170.024 109.776 168.658 109.258 166.883 109.258C164.967 109.258 163.42 109.89 162.242 111.154C161.071 112.419 160.486 114.127 160.486 116.279C160.486 118.454 161.099 120.135 162.324 121.321C163.549 122.499 165.253 123.088 167.437 123.088C168.293 123.088 169.11 122.982 169.887 122.77C170.665 122.558 171.426 122.295 172.172 121.981V119.566H172.055C171.67 119.911 171.022 120.265 170.111 120.626C169.208 120.979 168.308 121.156 167.413 121.156C166.738 121.156 166.117 121.062 165.552 120.873C164.994 120.685 164.511 120.402 164.103 120.025C163.679 119.64 163.345 119.149 163.101 118.553C162.858 117.948 162.736 117.241 162.736 116.432ZM169.392 112.038C169.973 112.674 170.268 113.573 170.276 114.736H162.736C162.831 113.699 163.227 112.831 163.926 112.132C164.633 111.433 165.579 111.084 166.765 111.084C167.943 111.084 168.819 111.402 169.392 112.038ZM183.882 112.038H184V109.764C183.654 109.709 183.395 109.674 183.223 109.658C183.05 109.635 182.771 109.623 182.386 109.623C181.687 109.623 181 109.772 180.325 110.071C179.657 110.361 178.883 110.86 178.004 111.567V109.623H175.789V122.782H178.004V113.44C178.593 112.961 179.205 112.572 179.842 112.274C180.478 111.967 181.137 111.814 181.821 111.814C182.245 111.814 182.61 111.834 182.916 111.873C183.23 111.904 183.552 111.959 183.882 112.038Z" fill="#A80700"/>
</g>
<defs>
<filter id="filter0_d_23_15" x="0.460508" y="0.876074" width="194.095" height="138.799" filterUnits="userSpaceOnUse" color-interpolation-filters="sRGB">
<feFlood flood-opacity="0" result="BackgroundImageFix"/>
<feColorMatrix in="SourceAlpha" type="matrix" values="0 0 0 0 0 0 0 0 0 0 0 0 0 0 0 0 0 0 127 0" result="hardAlpha"/>
<feOffset dx="1.5079" dy="7.53949"/>
<feGaussianBlur stdDeviation="4.52369"/>
<feComposite in2="hardAlpha" operator="out"/>
<feColorMatrix type="matrix" values="0 0 0 0 0 0 0 0 0 0 0 0 0 0 0 0 0 0 0.75 0"/>
<feBlend mode="normal" in2="BackgroundImageFix" result="effect1_dropShadow_23_15"/>
<feBlend mode="normal" in="SourceGraphic" in2="effect1_dropShadow_23_15" result="shape"/>
</filter>
</defs>
</svg>
